<svg width="39" height="39" viewBox="0 0 39 39" fill="none" xmlns="http://www.w3.org/2000/svg">
<rect width="39" height="39" rx="19.5" fill="#231815"/>
<path d="M19.0568 28.142C14.0489 28.142 9.97162 24.0647 9.97162 19.0568C9.97162 14.0488 14.0489 9.97156 19.0568 9.97156C24.0648 9.97156 28.1421 14.0488 28.1421 19.0568C28.1421 24.0647 24.0648 28.142 19.0568 28.142ZM19.0568 11.3011C14.7757 11.3011 11.3012 14.7845 11.3012 19.0568C11.3012 23.3291 14.7757 26.8125 19.0568 26.8125C23.338 26.8125 26.8125 23.3291 26.8125 19.0568C26.8125 14.7845 23.338 11.3011 19.0568 11.3011Z" fill="white"/>
<path d="M28.3636 29.0284C28.1952 29.0284 28.0268 28.9664 27.8939 28.8334L26.1211 27.0607C25.8641 26.8036 25.8641 26.3782 26.1211 26.1211C26.3782 25.8641 26.8036 25.8641 27.0607 26.1211L28.8334 27.8939C29.0904 28.1509 29.0904 28.5764 28.8334 28.8334C28.7004 28.9664 28.532 29.0284 28.3636 29.0284Z" fill="white"/>
</svg>
